HIERARCHY
ROOT Hips
{
  OFFSET -32.5998 29.0326 120.673
  CHANNELS 6 Xposition Yposition Zposition Zrotation Xrotation Yrotation
  JOINT LeftUpLeg
  {
    OFFSET 8.64259 1.95398 -2.38835
    CHANNELS 3 Zrotation Xrotation Yrotation
    JOINT LeftLeg
    {
      OFFSET 43.7702 0 0
      CHANNELS 3 Zrotation Xrotation Yrotation
      JOINT LeftFoot
      {
        OFFSET 40.6238 0 0
        CHANNELS 3 Zrotation Xrotation Yrotation
        JOINT LeftToeBase
        {
          OFFSET 12.7242 0 0
          CHANNELS 3 Zrotation Xrotation Yrotation
          End Site
          {
            OFFSET 0 0 0
          }
        }
      }
    }
  }
  JOINT RightUpLeg
  {
    OFFSET -8.2249 1.95398 -2.59336
    CHANNELS 3 Zrotation Xrotation Yrotation
    JOINT RightLeg
    {
      OFFSET 43.5653 0 0
      CHANNELS 3 Zrotation Xrotation Yrotation
      JOINT RightFoot
      {
        OFFSET 40.6238 0 0
        CHANNELS 3 Zrotation Xrotation Yrotation
        JOINT RightToeBase
        {
          OFFSET 12.7242 0 0
          CHANNELS 3 Zrotation Xrotation Yrotation
          End Site
          {
            OFFSET 0 0 0
          }
        }
      }
    }
  }
  JOINT Spine
  {
    OFFSET 0.165834 0.87714 6.61349
    CHANNELS 3 Zrotation Xrotation Yrotation
    JOINT Spine1
    {
      OFFSET 7.38963 1.71661e-005 0
      CHANNELS 3 Zrotation Xrotation Yrotation
      JOINT Spine2
      {
        OFFSET 11.9445 1.14441e-005 0
        CHANNELS 3 Zrotation Xrotation Yrotation
        JOINT Spine3
        {
          OFFSET 14.7254 4.19617e-005 0
          CHANNELS 3 Zrotation Xrotation Yrotation
          JOINT Spine4
          {
            OFFSET 10.9679 0 0
            CHANNELS 3 Zrotation Xrotation Yrotation
            JOINT RightShoulder
            {
              OFFSET 2.46616 -1.6653 3.69651
              CHANNELS 3 Zrotation Xrotation Yrotation
              JOINT RightArm
              {
                OFFSET 13.0012 0 0
                CHANNELS 3 Zrotation Xrotation Yrotation
                JOINT RightForeArm
                {
                  OFFSET 28.7848 1.62311e-005 0
                  CHANNELS 3 Zrotation Xrotation Yrotation
                  JOINT RightHand
                  {
                    OFFSET 26.5688 1.62095e-005 0
                    CHANNELS 3 Zrotation Xrotation Yrotation
                    End Site
                    {
                      OFFSET 0 0 0
                    }
                  }
                }
              }
            }
            JOINT LeftShoulder
            {
              OFFSET 2.38034 -1.29275 -3.7523
              CHANNELS 3 Zrotation Xrotation Yrotation
              JOINT LeftArm
              {
                OFFSET 16.3182 6.07031e-005 0
                CHANNELS 3 Zrotation Xrotation Yrotation
                JOINT LeftForeArm
                {
                  OFFSET 27.0901 0 0
                  CHANNELS 3 Zrotation Xrotation Yrotation
                  JOINT LeftHand
                  {
                    OFFSET 24.5451 1.51738e-005 0
                    CHANNELS 3 Zrotation Xrotation Yrotation
                    End Site
                    {
                      OFFSET 0 0 0
                    }
                  }
                }
              }
            }
            JOINT Neck
            {
              OFFSET 5.0226 -0.0266342 0
              CHANNELS 3 Zrotation Xrotation Yrotation
              JOINT Head
              {
                OFFSET 6.69364 2.86102e-005 0
                CHANNELS 3 Zrotation Xrotation Yrotation
                End Site
                {
                  OFFSET 0 0 0
                }
              }
            }
          }
        }
      }
    }
  }
}
MOTION
Frames:	18
Frame Time:	0.0416667
-309.975 91.3637 299.685 -102.176 -41.7439 -98.629 -170.87 2.51607 91.8288 -39.1456 18.6835 -2.05623 87.1021 16.1419 -0.716516 15.3496 -9.1465 5.83416 177.082 19.3089 89.1597 -18.44 -9.92991 -0.753764 54.2027 2.02059 1.63122 22.1106 2.58296 1.49139 0.86303 8.50876 -90.4814 9.86301 1.50185 -1.07611 -1.80759 1.45303 -1.14118 -24.3484 1.7558 -0.574911 -4.33574 1.7558 -0.574921 92.7525 -26.0908 -102.521 40.527 -11.7773 -1.66337 -8.78163 -3.07686 -19.1206 -12.7099 -0.249035 -2.99841 -89.327 -48.5623 79.438 -15.5185 10.7826 -34.294 15.6267 5.64332 -22.5397 -1.39939 -0.117005 -7.48906 2.73157 -0.870966 -7.13874 -7.20654 0.341362 -1.04904 
-306.888 93.2724 297.829 -105.668 -41.226 -101.654 -171.596 0.00110996 90.0049 -32.9699 18.5598 -1.94376 80.9433 12.6853 0.173022 14.8842 -8.72849 4.71278 173.104 17.3053 88.561 -26.8421 2.19037 1.11721 59.5279 -0.0377729 -0.377442 21.5151 2.52818 2.4927 0.461959 8.39 -89.921 10.0918 0.956495 0.077385 -1.57885 0.958983 0.0352013 -24.1163 0.889007 0.361288 -4.10367 0.889047 0.361307 90.9184 -29.3125 -105.188 39.3167 -13.8533 -3.4391 -9.49631 -5.51968 -20.8636 -14.0522 -0.194412 -3.74745 -86.4272 -43.8764 83.0744 -17.3174 6.35514 -24.9535 16.2902 1.18033 -34.2366 2.65953 -0.0790842 -3.89572 -3.86738 0.154063 -10.4165 -5.90667 1.25377 1.20767 
-304.096 94.759 296.454 -108.456 -41.3 -103.978 -173.135 -3.673 88.8372 -27.045 18.1437 -0.934518 76.6326 10.2546 1.07911 11.671 -10.4874 4.83602 169.249 13.6066 86.2272 -45.0162 -1.26722 1.33519 64.4748 -1.82833 -0.211239 24.1013 1.39144 2.49029 0.366039 8.27222 -90.0798 10.3324 0.692795 -0.213975 -1.33836 0.682706 -0.244257 -23.8753 0.725065 0.00413935 -3.8626 0.725066 0.0041456 92.5877 -26.4015 -102.734 38.0983 -17.6249 -6.47985 -13.5921 -13.3685 -25.5483 -10.5982 -0.085712 -4.41274 -86.2657 -46.0571 83.7018 -19.1 6.52549 -13.8534 12.458 -3.76955 -34.6534 3.81907 -0.101272 -4.59775 -10.0841 0.358949 -4.36093 -5.97538 0.652163 -1.34017 
-301.833 95.368 294.595 -108.757 -41.7219 -104.857 -173.906 -2.91521 87.3825 -24.3697 18.5535 -0.851424 73.0512 8.11242 1.07561 11.5046 -10.5465 4.78616 166.969 5.63147 82.9428 -56.9148 -6.3133 -0.370172 65.174 -1.92931 -0.649607 23.9785 1.60728 1.96459 0.448216 7.96544 -90.1141 10.9444 0.839517 -0.308254 -0.726295 0.825125 -0.344919 -23.2637 0.893336 -0.0416734 -3.2511 0.893326 -0.041677 91.2328 -24.287 -106.47 36.5438 -15.1265 -6.61197 -14.9229 -13.6581 -27.228 -11.7427 -0.202336 -3.29022 -85.008 -49.0252 86.1005 -21.2726 12.0622 -2.12711 9.70525 -6.97996 -31.6924 2.05777 -0.0755444 -3.93703 -13.7693 0.227689 -0.990932 -7.66616 0.385622 -3.79717 
-299.193 95.1746 291.945 -110.001 -40.7994 -106.853 -174.443 -1.36056 86.0637 -24.6875 17.66 -1.16527 70.7889 6.60589 1.07539 10.998 -10.5997 4.44855 165.577 -6.79769 78.811 -54.0967 -13.996 -2.90293 64.8171 -2.16718 -0.751763 24.7281 0.946015 3.12585 0.874966 7.98377 -89.9931 10.9085 1.7453 -0.150845 -0.761251 1.73695 -0.227535 -23.3055 1.70992 0.380821 -3.2929 1.70993 0.380821 90.7869 -22.2823 -108.345 34.6873 -15.2622 -8.52007 -14.3477 -13.46 -25.9564 -10.5952 -0.120889 -4.01997 -84.305 -52.8411 87.6156 -23.0701 15.7749 6.86912 6.23599 -11.5204 -21.7033 1.53166 -0.0729321 -3.85338 -14.4477 -1.06522 -0.328505 -8.46646 -0.84146 -5.21976 
-294.61 94.2972 285.004 -103.295 -40.8779 -98.9576 -173.154 12.0136 88.8662 -28.3447 18.9753 -1.71603 67.6434 4.39506 1.12549 9.89599 -11.154 4.3929 170.741 -11.662 86.3244 -40.7257 -18.303 -3.41715 66.7116 -3.93833 -1.66797 29.2285 -0.716651 2.35702 1.30151 7.4729 -90.3116 11.9442 2.44169 -0.873243 0.275153 2.40088 -0.979913 -22.2782 2.59122 -0.0985883 -2.26554 2.59123 -0.0985938 91.3933 -21.6264 -107.276 32.0968 -14.505 -13.3072 -15.8876 -16.0101 -26.4581 -9.31405 -0.103407 -4.62876 -84.7328 -56.7888 87.4423 -25.1027 22.2871 12.3852 1.57363 -28.2153 -4.85013 1.8144 -0.075043 -3.78213 -12.6997 -2.03275 0.974069 -9.41365 -1.71338 -7.0567 
-288.861 93.9372 279.632 -104.355 -35.6954 -101.206 -174.567 11.2238 87.9113 -21.0202 13.0737 -1.40131 59.9982 -0.498311 -0.674418 10.4164 -11.1804 4.86405 168.167 -15.5021 81.0357 -29.6274 -26.7301 -5.30121 72.2562 -8.70545 -3.94239 40.0595 -5.35552 2.94072 1.62476 8.10133 -90.0714 10.6812 3.2027 -0.439348 -0.985899 3.18024 -0.580027 -23.5528 3.18651 0.544534 -3.54011 3.18651 0.544523 91.5752 -21.9698 -106.709 28.3993 -11.0077 -18.5522 -19.0461 -16.5215 -31.821 -15.3206 -0.546018 -0.93334 -85.394 -56.791 86.5164 -31.3642 15.4214 14.9286 5.50107 -25.5292 0.41802 -3.70867 -0.108191 -2.47959 -8.20492 -1.21834 3.11217 -9.19261 -1.14321 -5.72999 
-282.663 93.858 271.707 -102.616 -40.4388 -97.0767 -173.812 15.5992 92.0108 -14.5926 8.59155 -1.72789 59.3263 -0.0792541 -1.37526 11.6565 -12.8153 8.41058 171.182 -11.0824 88.5548 -25.6387 -19.8786 -1.4951 77.1684 -11.4012 -2.91226 31.4825 -1.90816 3.2294 1.03252 8.30629 -90.4707 10.2703 1.84196 -1.09892 -1.4 1.79179 -1.17893 -23.944 2.08706 -0.494365 -3.93131 2.08705 -0.49437 91.3701 -24.8139 -105.974 25.2357 -8.92388 -18.1012 -23.2202 -15.3784 -40.4045 -16.5813 -0.704495 -0.281921 -86.738 -53.4608 84.155 -33.0748 22.175 9.41195 4.11211 -19.1318 -1.0914 -4.71528 -0.133469 -2.07411 -3.42177 -0.57109 1.63454 -8.91537 -0.629369 -2.28506 
-277.544 95.2036 266.003 -106.833 -42.6608 -104.993 -171.707 13.0724 87.4355 -23.1768 -7.95782 -3.32295 62.5486 1.7984 -0.54392 11.4187 -11.2537 5.81265 169.334 -7.00305 84.6227 -28.7257 -19.1281 -1.81316 76.1095 -10.2842 -3.07703 28.6339 -0.662833 2.97061 0.595543 8.81995 -89.9798 9.23452 1.19682 -0.0465311 -2.43588 1.1936 -0.0991735 -24.9752 1.15546 0.315363 -4.96259 1.15546 0.31536 91.6362 -26.2784 -104.825 28.9567 -9.05155 -11.4299 -21.1973 -15.8132 -36.0618 -17.791 -0.836176 0.262313 -87.6155 -49.7569 82.2587 -25.2026 26.8854 -4.40392 4.68255 -13.1056 -0.324368 -0.670097 -0.0810447 -3.73032 -4.59149 -0.80319 -2.16091 -10.0947 -0.5437 -0.710649 
-274.162 96.0689 261.432 -102.609 -44.8727 -101.603 -168.957 15.5506 90.4316 -43.42 3.7557 -3.38094 68.3414 4.43592 0.578956 12.3733 -11.3445 6.77503 172.524 -1.16757 88.0654 -26.8291 -15.326 -1.84661 72.9662 -7.66532 -1.89807 26.0396 0.578712 2.4304 0.32273 8.27885 -90.0724 10.3165 0.609863 -0.19719 -1.35428 0.600589 -0.223846 -23.8906 0.640943 -0.00476951 -3.87792 0.640934 -0.00478017 92.3409 -25.3165 -103.679 38.9916 -12.0945 -2.22015 -12.0398 -9.56094 -23.1297 -14.278 -0.178877 -3.76737 -87.3988 -47.861 82.253 -18.4419 19.9068 -13.2666 6.50871 -10.2415 -8.54091 2.38835 -0.056452 -3.55161 -9.16146 -0.0994512 -1.94222 -10.4872 0.0176183 0.113475 
-270.778 96.3851 258.434 -102.816 -44.9581 -101.619 -168.984 5.98406 94.5167 -52.033 9.61115 -0.62755 69.3175 5.20773 1.55848 11.8986 -11.421 6.48758 172.991 1.42034 88.2324 -26.1504 -15.8601 -1.77063 70.934 -6.55046 -2.03004 24.5622 1.26321 2.26631 -0.0298089 8.06748 -90.21 10.7393 -0.156115 -0.403507 -0.931652 -0.173725 -0.396244 -23.4664 -0.0276455 -0.431773 -3.45374 -0.027629 -0.431772 93.2178 -25.4282 -101.746 45.3726 -14.99 5.72046 -7.99822 -9.82174 -15.067 -13.2217 -0.11205 -4.32279 -87.4855 -47.1063 81.9817 -17.4791 10.6523 -18.1098 9.02446 -7.66335 -18.0716 2.89852 -0.0994508 -4.50056 -12.1472 1.24209 0.874821 -11.5556 1.09712 1.71514 
-266.8 96.2049 255.477 -102.834 -45.7983 -100.784 -169.518 -3.69571 97.1431 -49.1454 12.258 2.01422 67.3636 4.11014 1.24671 11.4448 -9.6626 3.33692 173.857 4.87943 89.0292 -26.2909 -14.8502 -1.5524 68.6887 -5.06533 -1.46765 23.6919 1.67463 2.16358 -0.524332 7.9687 -90.4184 10.9327 -1.2374 -0.715047 -0.737803 -1.26768 -0.659905 -23.2745 -0.965305 -1.0539 -3.2619 -0.965325 -1.0539 93.9544 -24.8207 -100.339 49.8759 -13.0697 11.8844 -7.93408 -11.0211 -14.184 -10.9427 -0.0956666 -4.33376 -87.2917 -45.886 82.0605 -20.2692 4.12671 -24.6953 12.496 -2.59405 -21.8556 1.45736 -0.13742 -5.92913 -13.8453 2.94629 2.43511 -12.3353 2.70545 2.89664 
-261.363 95.673 251.903 -101.614 -48.493 -99.8402 -169.557 -9.95448 98.3109 -39.8779 18.3042 3.17056 67.2123 4.31671 -0.672258 14.5987 -9.14287 5.16508 174.57 10.3345 88.8132 -26.2724 -13.3696 -1.52974 65.6274 -2.79139 -1.36459 22.1577 2.30639 2.29911 -1.10397 7.84142 -90.4745 11.1848 -2.41761 -0.707684 -0.484059 -2.44639 -0.600546 -23.032 -2.09312 -1.40181 -3.01935 -2.09314 -1.4018 93.6532 -25.1395 -100.895 51.8217 -8.08333 14.5838 -9.38294 -8.55971 -16.1056 -10.0778 -0.214736 -2.8272 -86.4874 -44.0799 83.0171 -21.3103 4.66697 -29.8158 16.4528 4.07864 -25.4825 -0.107001 -0.120236 -5.87346 -13.7987 3.76817 3.07335 -13.2292 3.50248 2.86217 
-253.86 94.358 247.05 -100.831 -49.7259 -99.8014 -168.829 -12.2942 97.6802 -29.4448 21.7794 1.71777 73.103 9.32614 1.07633 31.4813 -3.67242 12.0679 175.151 17.1523 87.1803 -26.5964 -13.5465 -1.91856 61.2068 0.791242 -0.660301 21.2994 2.42841 3.09564 -1.09536 7.94009 -90.4137 10.988 -2.37215 -0.597575 -0.680873 -2.39616 -0.492543 -23.2289 -2.08287 -1.28313 -3.21626 -2.08286 -1.28312 94.0007 -25.4284 -100.055 53.1925 -7.29777 12.732 -10.0715 -6.62567 -18.685 -10.407 -0.0153005 -5.24195 -87.314 -43.7105 81.613 -19.6256 7.17932 -34.1669 19.1968 8.79948 -26.6254 1.12667 -0.115804 -5.18933 -13.2026 2.63997 1.64892 -10.1017 2.42379 3.65404 
-245.301 92.916 241.554 -101.582 -47.3018 -102.355 -169.566 -12.1884 92.9739 -25.9675 16.6452 -0.566185 83.2701 15.7514 -0.316909 27.9635 -5.85071 12.4912 174.863 21.3793 84.0872 -22.7121 -16.9163 -2.06666 59.0635 1.76214 -1.08001 24.4191 0.977453 3.41686 -0.67705 8.29872 -90.0033 10.2871 -1.35019 0.121513 -1.38306 -1.34352 0.180817 -23.9245 -1.32431 -0.28997 -3.91187 -1.32429 -0.289968 93.9177 -27.982 -99.4697 49.1804 -10.2051 7.47403 -12.7408 -10.0014 -24.3964 -9.75045 -0.0112127 -5.28477 -87.8329 -43.5216 80.7372 -19.1203 8.8437 -34.8396 18.1538 9.05917 -23.9215 0.955509 -0.112013 -5.02467 -9.58241 1.73398 -3.14067 -9.97066 1.65895 4.41759 
-237.858 93.5795 236.871 -101.507 -40.5585 -102.554 -171.908 -8.05013 87.9847 -27.6074 8.40834 -1.64505 84.8764 14.966 -1.75596 19.688 -10.6678 12.6962 173.473 19.4021 84.3188 -13.4533 -7.07597 -0.315187 64.6062 -4.01023 -1.3489 25.3215 1.11871 1.61843 0.00459903 8.57827 -89.6928 9.71515 0.148167 0.596275 -1.95599 0.174269 0.589168 -24.4895 -0.0378879 0.61324 -4.47689 -0.0378792 0.613242 92.9282 -28.4312 -101.389 44.0138 -12.4322 0.0174396 -12.9515 -11.0735 -24.0115 -10.1711 -0.114535 -4.05581 -87.634 -44.3624 81.2265 -17.9111 14.2486 -29.3474 11.5216 3.07106 -11.7855 -1.45903 -0.0930746 -5.48979 -9.68827 1.77687 -3.50994 -8.86283 1.83207 3.09352 
-232.068 95.5237 232.769 -99.5533 -36.4773 -98.8803 -173.137 -3.54899 87.3238 -24.952 4.2578 -1.15914 80.3689 11.8597 -1.03649 17.0559 -12.3396 12.7979 171.821 22.2507 86.6388 -26.4399 -1.39583 1.84296 65.4264 -3.02961 -0.835588 22.9298 2.31876 1.15754 0.450734 8.47991 -89.784 9.91264 0.996474 0.347801 -1.75797 1.01083 0.303592 -24.2951 0.845873 0.631215 -4.28246 0.845882 0.63121 91.5377 -27.5061 -104.576 39.9001 -14.112 -6.516 -11.3555 -9.73101 -21.4624 -11.8016 -0.192503 -3.40472 -87.3298 -45.7152 81.969 -19.9945 22.4252 -18.4161 6.43404 -7.73324 -0.0182053 -0.628818 -0.101568 -5.09445 -10.5042 1.9902 -2.57899 -8.2962 2.05298 1.68851 
-228.184 96.7244 229.286 -99.0617 -35.1287 -96.8627 -173.424 -0.148831 88.4461 -24.0753 6.4077 -0.698039 75.3807 8.75117 1.18762 17.6685 -11.6979 12.3508 171.267 19.588 86.9089 -44.7117 -12.4987 0.504309 65.9724 -3.30451 -2.9719 23.2853 1.23244 4.2224 0.824475 8.32343 -89.8628 10.227 1.70553 0.126758 -1.44283 1.70944 0.0515436 -23.986 1.58855 0.633598 -3.97337 1.58856 0.6336 91.4301 -26.0227 -105.359 39.1111 -13.385 -9.22893 -14.6143 -12.1613 -26.9124 -12.8687 -0.298552 -2.5716 -87.4914 -47.7727 82.094 -25.1392 31.4728 -1.80163 6.83099 3.00614 -9.24666 -0.951306 -0.0371513 -0.855364 -10.9107 1.44691 -2.57873 -7.74771 1.59444 -0.641785 
